<?xml version="1.0" encoding="UTF-8"?>
<!DOCTYPE svg PUBLIC "-//W3C//DTD SVG 1.1//EN" "http://www.w3.org/Graphics/SVG/1.1/DTD/svg11.dtd">
<svg xmlns="http://www.w3.org/2000/svg" version="1.1" width="32px" height="32px" style="shape-rendering:geometricPrecision; text-rendering:geometricPrecision; image-rendering:optimizeQuality; fill-rule:evenodd; clip-rule:evenodd" xmlns:xlink="http://www.w3.org/1999/xlink">
<g><path style="opacity:1" fill="#3db6e8" d="M 28.5,19.5 C 25.6097,18.1011 24.1097,15.7677 24,12.5C 23.8138,15.0356 23.3138,17.369 22.5,19.5C 22.5,17.1667 22.5,14.8333 22.5,12.5C 17.8333,12.5 13.1667,12.5 8.5,12.5C 8.5,12.1667 8.5,11.8333 8.5,11.5C 26.9078,11.4008 26.9078,10.0675 8.5,7.5C 9.26253,6.73209 10.2625,6.23209 11.5,6C 10.2068,5.50999 8.87344,5.34332 7.5,5.5C 8.05773,4.21009 9.05773,3.37675 10.5,3C 23.3528,1.01938 29.3528,6.51938 28.5,19.5 Z"/></g>
<g><path style="opacity:0.852" fill="#6195cf" d="M 7.5,5.5 C 8.87344,5.34332 10.2068,5.50999 11.5,6C 10.2625,6.23209 9.26253,6.73209 8.5,7.5C 8.5,8.83333 8.5,10.1667 8.5,11.5C 8.5,11.8333 8.5,12.1667 8.5,12.5C 8.5,14.8333 8.5,17.1667 8.5,19.5C 7.53178,17.3926 7.19845,15.0593 7.5,12.5C 5.7839,12.3713 4.11723,12.038 2.5,11.5C 3.44306,8.89084 5.10973,6.89084 7.5,5.5 Z"/></g>
<g><path style="opacity:0.998" fill="#f9fcfd" d="M 8.5,7.5 C 26.9078,10.0675 26.9078,11.4008 8.5,11.5C 8.5,10.1667 8.5,8.83333 8.5,7.5 Z"/></g>
<g><path style="opacity:0.999" fill="#f8fbfd" d="M 8.5,12.5 C 13.1667,12.5 17.8333,12.5 22.5,12.5C 22.5,14.8333 22.5,17.1667 22.5,19.5C 20.1873,18.3317 17.854,16.9983 15.5,15.5C 13.146,16.9983 10.8127,18.3317 8.5,19.5C 8.5,17.1667 8.5,14.8333 8.5,12.5 Z"/></g>
<g><path style="opacity:0.998" fill="#f3f6fb" d="M 17.5,18.5 C 18.404,19.209 18.7373,20.209 18.5,21.5C 16.5,24.1667 14.5,24.1667 12.5,21.5C 12.6573,17.7271 14.324,16.7271 17.5,18.5 Z"/></g>
<g><path style="opacity:1" fill="#54a0d7" d="M 28.5,19.5 C 27.6493,21.8816 26.316,23.8816 24.5,25.5C 23.0639,24.5714 21.7305,23.4048 20.5,22C 21.1667,21.6667 21.8333,21.3333 22.5,21C 21.0715,20.4209 19.7382,20.5876 18.5,21.5C 18.7373,20.209 18.404,19.209 17.5,18.5C 14.324,16.7271 12.6573,17.7271 12.5,21.5C 11.0048,21.0113 9.67145,20.3446 8.5,19.5C 10.8127,18.3317 13.146,16.9983 15.5,15.5C 17.854,16.9983 20.1873,18.3317 22.5,19.5C 23.3138,17.369 23.8138,15.0356 24,12.5C 24.1097,15.7677 25.6097,18.1011 28.5,19.5 Z"/></g>
<g><path style="opacity:0.992" fill="#95b5dd" d="M 17.5,18.5 C 17.1662,21.2748 15.8329,21.9415 13.5,20.5C 14.7658,19.6376 16.0992,18.9709 17.5,18.5 Z"/></g>
<g><path style="opacity:0.991" fill="#5c7ec0" d="M 2.5,11.5 C 4.11723,12.038 5.7839,12.3713 7.5,12.5C 7.19845,15.0593 7.53178,17.3926 8.5,19.5C 9.67145,20.3446 11.0048,21.0113 12.5,21.5C 14.5,24.1667 16.5,24.1667 18.5,21.5C 19.7382,20.5876 21.0715,20.4209 22.5,21C 21.8333,21.3333 21.1667,21.6667 20.5,22C 21.7305,23.4048 23.0639,24.5714 24.5,25.5C 19.5477,28.8282 14.2144,29.3282 8.5,27C 3.1192,23.2299 1.1192,18.0633 2.5,11.5 Z"/></g>
</svg>
