<?xml version="1.0" encoding="UTF-8"?>
<!DOCTYPE svg PUBLIC "-//W3C//DTD SVG 1.1//EN" "http://www.w3.org/Graphics/SVG/1.1/DTD/svg11.dtd">
<svg xmlns="http://www.w3.org/2000/svg" version="1.1" width="114px" height="32px" style="shape-rendering:geometricPrecision; text-rendering:geometricPrecision; image-rendering:optimizeQuality; fill-rule:evenodd; clip-rule:evenodd" xmlns:xlink="http://www.w3.org/1999/xlink">
<g><path style="opacity:1" fill="#30b1e6" d="M 27.5,21.5 C 25.52,20.5264 23.8533,19.193 22.5,17.5C 22.5,16.1667 22.5,14.8333 22.5,13.5C 22.5,12.8333 22.5,12.1667 22.5,11.5C 19.908,9.82329 16.908,8.65662 13.5,8C 11.5273,7.50454 9.5273,7.33788 7.5,7.5C 7.16667,7.5 6.83333,7.5 6.5,7.5C 5.5,7.5 4.5,7.5 3.5,7.5C 4.89361,5.29181 6.89361,3.79181 9.5,3C 23.8269,1.15945 29.8269,7.32612 27.5,21.5 Z"/></g>
<g><path style="opacity:0.998" fill="#eff8fc" d="M 7.5,7.5 C 9.5273,7.33788 11.5273,7.50454 13.5,8C 16.908,8.65662 19.908,9.82329 22.5,11.5C 17.5,11.5 12.5,11.5 7.5,11.5C 7.5,10.1667 7.5,8.83333 7.5,7.5 Z"/></g>
<g><path style="opacity:0.787" fill="#fefffe" d="M 31.5,8.5 C 32.5,8.5 33.5,8.5 34.5,8.5C 34.5,12.5 34.5,16.5 34.5,20.5C 36.604,20.2011 38.604,20.5344 40.5,21.5C 37.5719,22.4841 34.5719,22.8174 31.5,22.5C 31.5,17.8333 31.5,13.1667 31.5,8.5 Z"/></g>
<g><path style="opacity:0.576" fill="#fefffe" d="M 41.5,8.5 C 42.5,8.5 43.5,8.5 44.5,8.5C 44.5,9.5 44.5,10.5 44.5,11.5C 43.5,11.5 42.5,11.5 41.5,11.5C 41.5,10.5 41.5,9.5 41.5,8.5 Z"/></g>
<g><path style="opacity:0.643" fill="#fefffe" d="M 66.5,8.5 C 77.3944,7.33009 80.7278,11.6634 76.5,21.5C 73.2423,22.4173 69.909,22.7507 66.5,22.5C 66.5,17.8333 66.5,13.1667 66.5,8.5 Z M 70.5,11.5 C 74.7079,12.2526 76.0412,14.5859 74.5,18.5C 73.3112,19.4287 71.9778,19.762 70.5,19.5C 70.5,16.8333 70.5,14.1667 70.5,11.5 Z"/></g>
<g><path style="opacity:0.996" fill="#93c7e8" d="M 6.5,7.5 C 6.83333,7.5 7.16667,7.5 7.5,7.5C 7.5,8.83333 7.5,10.1667 7.5,11.5C 12.5,11.5 17.5,11.5 22.5,11.5C 22.5,12.1667 22.5,12.8333 22.5,13.5C 17.5,13.5 12.5,13.5 7.5,13.5C 7.5,15.8333 7.5,18.1667 7.5,20.5C 6.51511,16.3656 6.18178,12.0323 6.5,7.5 Z"/></g>
<g><path style="opacity:0.756" fill="#fefffe" d="M 41.5,12.5 C 42.5,12.5 43.5,12.5 44.5,12.5C 44.5,15.8333 44.5,19.1667 44.5,22.5C 43.5,22.5 42.5,22.5 41.5,22.5C 41.5,19.1667 41.5,15.8333 41.5,12.5 Z"/></g>
<g><path style="opacity:0.658" fill="#fefffe" d="M 55.5,15.5 C 54.3995,17.2774 53.5662,19.2774 53,21.5C 51.5064,22.7472 50.0064,22.7472 48.5,21.5C 47.199,18.5729 46.199,15.5729 45.5,12.5C 48.3289,12.3249 49.9955,13.6582 50.5,16.5C 51.0045,13.6582 52.6711,12.3249 55.5,12.5C 55.5,13.5 55.5,14.5 55.5,15.5 Z"/></g>
<g><path style="opacity:0.658" fill="#fefffe" d="M 55.5,15.5 C 57.7179,12.6128 60.7179,11.7795 64.5,13C 65.4061,14.6995 65.7394,16.5328 65.5,18.5C 63.4727,18.3379 61.4727,18.5045 59.5,19C 60,19.5 60.5,20 61,20.5C 62.4936,19.2528 63.9936,19.2528 65.5,20.5C 63.0369,23.9314 60.2036,24.2647 57,21.5C 55.872,19.6547 55.372,17.6547 55.5,15.5 Z M 60.5,14.5 C 63.1368,16.1538 62.8034,16.6538 59.5,16C 60.056,15.6174 60.3893,15.1174 60.5,14.5 Z"/></g>
<g><path style="opacity:0.667" fill="#fefffe" d="M 81.5,12.5 C 88.9928,11.8288 91.3261,14.9954 88.5,22C 81.7352,24.2434 78.9019,21.7434 80,14.5C 80.7172,13.9558 81.2172,13.2891 81.5,12.5 Z M 83.5,15.5 C 84.5,15.5 85.5,15.5 86.5,15.5C 86.6132,20.7859 85.2798,21.4525 82.5,17.5C 82.8627,16.8165 83.1961,16.1499 83.5,15.5 Z"/></g>
<g><path style="opacity:0.629" fill="#fefffe" d="M 92.5,12.5 C 95.9079,11.828 98.5745,12.828 100.5,15.5C 98.5269,16.3311 96.5269,16.4978 94.5,16C 93.3966,17.6804 93.7299,19.1804 95.5,20.5C 96.3279,19.5853 97.3279,18.9186 98.5,18.5C 100.473,19.3311 102.473,19.4978 104.5,19C 101.527,17.7758 100.86,15.7758 102.5,13C 103.5,12.8333 104.5,12.6667 105.5,12.5C 107.319,12.3422 108.652,13.0089 109.5,14.5C 107.892,15.2421 106.225,15.4087 104.5,15C 106.979,15.8786 108.979,17.3786 110.5,19.5C 107.672,24.3698 104.338,24.7032 100.5,20.5C 97.7858,23.9339 94.7858,24.2673 91.5,21.5C 89.992,18.2313 90.3254,15.2313 92.5,12.5 Z"/></g>
<g><path style="opacity:1" fill="#f3f7fb" d="M 22.5,13.5 C 22.5,14.8333 22.5,16.1667 22.5,17.5C 22.5,18.5 22.5,19.5 22.5,20.5C 19.5034,21.1412 16.8367,22.4745 14.5,24.5C 11.7536,23.9037 10.9202,22.2371 12,19.5C 13.1711,18.1068 14.6711,17.2735 16.5,17C 15.1667,16.3333 13.8333,16.3333 12.5,17C 11.4911,19.1718 9.82441,20.3385 7.5,20.5C 7.5,18.1667 7.5,15.8333 7.5,13.5C 12.5,13.5 17.5,13.5 22.5,13.5 Z"/></g>
<g><path style="opacity:0.992" fill="#5c84c4" d="M 3.5,7.5 C 4.5,7.5 5.5,7.5 6.5,7.5C 6.18178,12.0323 6.51511,16.3656 7.5,20.5C 9.82441,20.3385 11.4911,19.1718 12.5,17C 13.8333,16.3333 15.1667,16.3333 16.5,17C 14.6711,17.2735 13.1711,18.1068 12,19.5C 10.9202,22.2371 11.7536,23.9037 14.5,24.5C 16.8367,22.4745 19.5034,21.1412 22.5,20.5C 22.5,19.5 22.5,18.5 22.5,17.5C 23.8533,19.193 25.52,20.5264 27.5,21.5C 23.7836,29.07 17.7836,31.57 9.5,29C 6.06292,27.8951 3.56292,25.7284 2,22.5C 0.954763,17.2145 1.45476,12.2145 3.5,7.5 Z"/></g>
<g><path style="opacity:0.992" fill="#729ed2" d="M 15.5,19.5 C 16.0431,19.56 16.3764,19.8933 16.5,20.5C 15.1521,22.4613 13.8187,22.6279 12.5,21C 13.7375,20.7679 14.7375,20.2679 15.5,19.5 Z"/></g>
</svg>
